<svg width="1600" height="886" viewBox="0 0 1600 886" fill="none" xmlns="http://www.w3.org/2000/svg">
<g clip-path="url(#clip0_1_2)">
<rect width="1600" height="886" fill="url(#paint0_linear_1_2)"/>
<rect x="48" y="43" width="1504" height="800" fill="url(#paint1_linear_1_2)"/>
<rect x="800" y="43" width="752" height="800" fill="url(#paint2_linear_1_2)"/>
<rect x="1565.57" y="-21" width="173.133" height="1086" transform="rotate(32.3327 1565.57 -21)" fill="url(#paint3_linear_1_2)"/>
<g filter="url(#filter0_d_1_2)">
<mask id="path-4-outside-1_1_2" maskUnits="userSpaceOnUse" x="1474" y="223" width="63" height="431" fill="black">
<rect fill="white" x="1474" y="223" width="63" height="431"/>
<path d="M1476 267.745L1487.12 264.84V245.584L1476 242.596V225L1535.51 244.339V265.67L1476 285.258V267.745ZM1509.95 258.947C1511 258.67 1512.49 258.283 1514.43 257.785C1516.42 257.287 1518.47 256.789 1520.57 256.291C1522.67 255.793 1524.39 255.406 1525.72 255.129C1524.39 254.908 1522.73 254.548 1520.74 254.05C1518.75 253.607 1516.78 253.137 1514.84 252.639C1512.91 252.196 1511.28 251.809 1509.95 251.477L1500.24 248.904V261.52L1509.95 258.947ZM1499.57 351.956C1494.59 351.956 1490.28 351.015 1486.62 349.134C1482.97 347.252 1480.15 344.403 1478.16 340.585C1476.17 336.822 1475.17 332.091 1475.17 326.392C1475.17 318.202 1477.25 311.95 1481.4 307.634C1485.6 303.373 1491.55 301.243 1499.24 301.243H1535.26V317.345H1500.49C1496.28 317.345 1493.24 318.119 1491.36 319.669C1489.47 321.273 1488.53 323.597 1488.53 326.641C1488.53 328.854 1488.95 330.625 1489.78 331.953C1490.61 333.336 1491.91 334.332 1493.68 334.941C1495.45 335.605 1497.75 335.937 1500.57 335.937H1535.26V351.956H1499.57ZM1476 400.497V384.478H1522.15V370.036H1535.26V414.939H1522.15V400.497H1476ZM1499.57 483.731C1494.59 483.731 1490.28 482.79 1486.62 480.909C1482.97 479.028 1480.15 476.178 1478.16 472.36C1476.17 468.597 1475.17 463.866 1475.17 458.167C1475.17 449.978 1477.25 443.725 1481.4 439.409C1485.6 435.148 1491.55 433.018 1499.24 433.018H1535.26V449.12H1500.49C1496.28 449.12 1493.24 449.895 1491.36 451.444C1489.47 453.049 1488.53 455.373 1488.53 458.416C1488.53 460.629 1488.95 462.4 1489.78 463.728C1490.61 465.111 1491.91 466.107 1493.68 466.716C1495.45 467.38 1497.75 467.712 1500.57 467.712H1535.26V483.731H1499.57ZM1476 531.94L1518.66 519.822V519.49C1517.56 519.601 1516.06 519.712 1514.18 519.822C1512.3 519.933 1510.25 520.044 1508.04 520.154C1505.88 520.265 1503.78 520.32 1501.73 520.32H1476V506.127H1535.26V527.458L1493.18 539.825V540.157L1535.26 552.275V573.606H1476V558.915H1501.98C1503.86 558.915 1505.85 558.943 1507.96 558.998C1510.11 559.054 1512.13 559.137 1514.01 559.247C1515.95 559.358 1517.47 559.441 1518.58 559.496V559.164L1476 547.212V531.94ZM1476 652.772V631.773L1517.75 610.11V609.778C1516.81 609.888 1515.7 609.971 1514.43 610.027C1513.16 610.137 1511.83 610.22 1510.45 610.276C1509.06 610.331 1507.71 610.386 1506.38 610.442C1505.05 610.497 1503.83 610.525 1502.73 610.525H1476V596.332H1535.26V617.248L1494.09 638.828V639.077C1495.03 639.021 1496.11 638.938 1497.33 638.828C1498.6 638.772 1499.88 638.717 1501.15 638.662C1502.48 638.606 1503.78 638.551 1505.05 638.496C1506.32 638.496 1507.46 638.496 1508.45 638.496H1535.26V652.772H1476Z"/>
</mask>
<path d="M1476 267.745L1475.75 266.777L1475 266.973V267.745H1476ZM1487.12 264.84L1487.37 265.808L1488.12 265.612V264.84H1487.12ZM1487.12 245.584H1488.12V244.817L1487.38 244.618L1487.12 245.584ZM1476 242.596H1475V243.363L1475.74 243.562L1476 242.596ZM1476 225L1476.31 224.049L1475 223.624V225H1476ZM1535.51 244.339H1536.51V243.612L1535.82 243.388L1535.51 244.339ZM1535.51 265.67L1535.82 266.62L1536.51 266.394V265.67H1535.51ZM1476 285.258H1475V286.64L1476.31 286.208L1476 285.258ZM1509.95 258.947L1509.69 257.98L1509.69 257.98L1509.95 258.947ZM1514.43 257.785L1514.19 256.815L1514.18 256.817L1514.43 257.785ZM1520.57 256.291L1520.34 255.318L1520.57 256.291ZM1525.72 255.129L1525.92 256.108L1525.88 254.143L1525.72 255.129ZM1520.74 254.05L1520.98 253.08L1520.97 253.077L1520.95 253.074L1520.74 254.05ZM1514.84 252.639L1515.09 251.671L1515.08 251.667L1515.07 251.664L1514.84 252.639ZM1509.95 251.477L1509.69 252.444L1509.7 252.447L1509.95 251.477ZM1500.24 248.904L1500.49 247.937L1499.24 247.605V248.904H1500.24ZM1500.24 261.52H1499.24V262.819L1500.49 262.487L1500.24 261.52ZM1476.25 268.713L1487.37 265.808L1486.87 263.872L1475.75 266.777L1476.25 268.713ZM1488.12 264.84V245.584H1486.12V264.84H1488.12ZM1487.38 244.618L1476.26 241.63L1475.74 243.562L1486.86 246.55L1487.38 244.618ZM1477 242.596V225H1475V242.596H1477ZM1475.69 225.951L1535.2 245.29L1535.82 243.388L1476.31 224.049L1475.69 225.951ZM1534.51 244.339V265.67H1536.51V244.339H1534.51ZM1535.2 264.72L1475.69 284.308L1476.31 286.208L1535.82 266.62L1535.2 264.72ZM1477 285.258V267.745H1475V285.258H1477ZM1510.2 259.914C1511.25 259.638 1512.74 259.251 1514.68 258.753L1514.18 256.817C1512.24 257.315 1510.75 257.703 1509.69 257.98L1510.2 259.914ZM1514.67 258.755C1516.66 258.258 1518.7 257.761 1520.8 257.264L1520.34 255.318C1518.23 255.817 1516.18 256.316 1514.19 256.815L1514.67 258.755ZM1520.8 257.264C1522.9 256.767 1524.61 256.382 1525.92 256.108L1525.51 254.15C1524.17 254.429 1522.45 254.819 1520.34 255.318L1520.8 257.264ZM1525.88 254.143C1524.59 253.927 1522.96 253.574 1520.98 253.08L1520.49 255.02C1522.5 255.522 1524.19 255.888 1525.55 256.115L1525.88 254.143ZM1520.95 253.074C1518.97 252.633 1517.02 252.166 1515.09 251.671L1514.59 253.607C1516.54 254.108 1518.52 254.581 1520.52 255.026L1520.95 253.074ZM1515.07 251.664C1513.13 251.222 1511.51 250.837 1510.19 250.507L1509.7 252.447C1511.04 252.781 1512.68 253.17 1514.62 253.614L1515.07 251.664ZM1510.2 250.51L1500.49 247.937L1499.98 249.871L1509.69 252.444L1510.2 250.51ZM1499.24 248.904V261.52H1501.24V248.904H1499.24ZM1500.49 262.487L1510.2 259.914L1509.69 257.98L1499.98 260.553L1500.49 262.487ZM1486.62 349.134L1487.08 348.245L1486.62 349.134ZM1478.16 340.585L1479.04 340.122L1479.04 340.117L1478.16 340.585ZM1481.39 307.634L1480.68 306.931L1480.67 306.941L1481.39 307.634ZM1535.26 301.243H1536.26V300.243H1535.26V301.243ZM1535.26 317.345V318.345H1536.26V317.345H1535.26ZM1491.36 319.669L1490.72 318.897L1490.71 318.902L1490.71 318.908L1491.36 319.669ZM1489.78 331.953L1490.64 331.438L1490.63 331.43L1490.63 331.423L1489.78 331.953ZM1493.68 334.941L1494.03 334.004L1494.02 333.999L1494 333.995L1493.68 334.941ZM1535.26 335.937H1536.26V334.937H1535.26V335.937ZM1535.26 351.956V352.956H1536.26V351.956H1535.26ZM1499.57 350.956C1494.72 350.956 1490.57 350.039 1487.08 348.245L1486.17 350.023C1489.99 351.991 1494.47 352.956 1499.57 352.956V350.956ZM1487.08 348.245C1483.62 346.463 1480.95 343.766 1479.04 340.122L1477.27 341.047C1479.35 345.039 1482.32 348.042 1486.17 350.023L1487.08 348.245ZM1479.04 340.117C1477.15 336.539 1476.17 331.981 1476.17 326.392H1474.17C1474.17 332.201 1475.18 337.105 1477.27 341.053L1479.04 340.117ZM1476.17 326.392C1476.17 318.364 1478.2 312.397 1482.12 308.327L1480.67 306.941C1476.29 311.502 1474.17 318.041 1474.17 326.392H1476.17ZM1482.11 308.336C1486.07 304.316 1491.74 302.243 1499.24 302.243V300.243C1491.36 300.243 1485.13 302.43 1480.68 306.931L1482.11 308.336ZM1499.24 302.243H1535.26V300.243H1499.24V302.243ZM1534.26 301.243V317.345H1536.26V301.243H1534.26ZM1535.26 316.345H1500.49V318.345H1535.26V316.345ZM1500.49 316.345C1496.2 316.345 1492.87 317.126 1490.72 318.897L1491.99 320.441C1493.6 319.113 1496.36 318.345 1500.49 318.345V316.345ZM1490.71 318.908C1488.55 320.746 1487.53 323.378 1487.53 326.641H1489.53C1489.53 323.816 1490.4 321.801 1492 320.429L1490.71 318.908ZM1487.53 326.641C1487.53 328.968 1487.97 330.943 1488.93 332.483L1490.63 331.423C1489.93 330.306 1489.53 328.74 1489.53 326.641H1487.53ZM1488.92 332.467C1489.89 334.084 1491.4 335.214 1493.35 335.886L1494 333.995C1492.42 333.45 1491.33 332.588 1490.64 331.438L1488.92 332.467ZM1493.33 335.877C1495.25 336.598 1497.68 336.937 1500.57 336.937V334.937C1497.81 334.937 1495.65 334.611 1494.03 334.004L1493.33 335.877ZM1500.57 336.937H1535.26V334.937H1500.57V336.937ZM1534.26 335.937V351.956H1536.26V335.937H1534.26ZM1535.26 350.956H1499.57V352.956H1535.26V350.956ZM1476 400.497H1475V401.497H1476V400.497ZM1476 384.478V383.478H1475V384.478H1476ZM1522.15 384.478V385.478H1523.15V384.478H1522.15ZM1522.15 370.036V369.036H1521.15V370.036H1522.15ZM1535.26 370.036H1536.26V369.036H1535.26V370.036ZM1535.26 414.939V415.939H1536.26V414.939H1535.26ZM1522.15 414.939H1521.15V415.939H1522.15V414.939ZM1522.15 400.497H1523.15V399.497H1522.15V400.497ZM1477 400.497V384.478H1475V400.497H1477ZM1476 385.478H1522.15V383.478H1476V385.478ZM1523.15 384.478V370.036H1521.15V384.478H1523.15ZM1522.15 371.036H1535.26V369.036H1522.15V371.036ZM1534.26 370.036V414.939H1536.26V370.036H1534.26ZM1535.26 413.939H1522.15V415.939H1535.26V413.939ZM1523.15 414.939V400.497H1521.15V414.939H1523.15ZM1522.15 399.497H1476V401.497H1522.15V399.497ZM1486.62 480.909L1487.08 480.02L1486.62 480.909ZM1478.16 472.36L1479.04 471.898L1479.04 471.892L1478.16 472.36ZM1481.39 439.409L1480.68 438.707L1480.67 438.716L1481.39 439.409ZM1535.26 433.018H1536.26V432.018H1535.26V433.018ZM1535.26 449.12V450.12H1536.26V449.12H1535.26ZM1491.36 451.444L1490.72 450.672L1490.71 450.678L1490.71 450.683L1491.36 451.444ZM1489.78 463.728L1490.64 463.214L1490.63 463.206L1490.63 463.198L1489.78 463.728ZM1493.68 466.716L1494.03 465.78L1494.02 465.775L1494 465.77L1493.68 466.716ZM1535.26 467.712H1536.26V466.712H1535.26V467.712ZM1535.26 483.731V484.731H1536.26V483.731H1535.26ZM1499.57 482.731C1494.72 482.731 1490.57 481.815 1487.08 480.02L1486.17 481.798C1489.99 483.766 1494.47 484.731 1499.57 484.731V482.731ZM1487.08 480.02C1483.62 478.238 1480.95 475.542 1479.04 471.898L1477.27 472.823C1479.35 476.814 1482.32 479.818 1486.17 481.798L1487.08 480.02ZM1479.04 471.892C1477.15 468.314 1476.17 463.756 1476.17 458.167H1474.17C1474.17 463.977 1475.18 468.881 1477.27 472.828L1479.04 471.892ZM1476.17 458.167C1476.17 450.139 1478.2 444.172 1482.12 440.102L1480.67 438.716C1476.29 443.278 1474.17 449.816 1474.17 458.167H1476.17ZM1482.11 440.112C1486.07 436.091 1491.74 434.018 1499.24 434.018V432.018C1491.36 432.018 1485.13 434.205 1480.68 438.707L1482.11 440.112ZM1499.24 434.018H1535.26V432.018H1499.24V434.018ZM1534.26 433.018V449.12H1536.26V433.018H1534.26ZM1535.26 448.12H1500.49V450.12H1535.26V448.12ZM1500.49 448.12C1496.2 448.12 1492.87 448.901 1490.72 450.672L1491.99 452.216C1493.6 450.888 1496.36 450.12 1500.49 450.12V448.12ZM1490.71 450.683C1488.55 452.521 1487.53 455.154 1487.53 458.416H1489.53C1489.53 455.592 1490.4 453.577 1492 452.205L1490.71 450.683ZM1487.53 458.416C1487.53 460.743 1487.97 462.718 1488.93 464.258L1490.63 463.198C1489.93 462.082 1489.53 460.516 1489.53 458.416H1487.53ZM1488.92 464.243C1489.89 465.86 1491.4 466.99 1493.35 467.662L1494 465.77C1492.42 465.225 1491.33 464.363 1490.64 463.214L1488.92 464.243ZM1493.33 467.652C1495.25 468.374 1497.68 468.712 1500.57 468.712V466.712C1497.81 466.712 1495.65 466.386 1494.03 465.78L1493.33 467.652ZM1500.57 468.712H1535.26V466.712H1500.57V468.712ZM1534.26 467.712V483.731H1536.26V467.712H1534.26ZM1535.26 482.731H1499.57V484.731H1535.26V482.731ZM1476 531.94L1475.73 530.979L1475 531.185V531.94H1476ZM1518.66 519.822L1518.94 520.784L1519.66 520.578V519.822H1518.66ZM1518.66 519.49H1519.66V518.385L1518.56 518.495L1518.66 519.49ZM1514.18 519.822L1514.12 518.824L1514.18 519.822ZM1508.04 520.154L1507.99 519.156L1507.99 519.156L1508.04 520.154ZM1476 520.32H1475V521.32H1476V520.32ZM1476 506.127V505.127H1475V506.127H1476ZM1535.26 506.127H1536.26V505.127H1535.26V506.127ZM1535.26 527.458L1535.54 528.418L1536.26 528.207V527.458H1535.26ZM1493.18 539.825L1492.9 538.866L1492.18 539.077V539.825H1493.18ZM1493.18 540.157H1492.18V540.91L1492.9 541.118L1493.18 540.157ZM1535.26 552.275H1536.26V551.523L1535.54 551.315L1535.26 552.275ZM1535.26 573.606V574.606H1536.26V573.606H1535.26ZM1476 573.606H1475V574.606H1476V573.606ZM1476 558.915V557.915H1475V558.915H1476ZM1507.96 558.998L1507.93 559.998L1507.93 559.998L1507.96 558.998ZM1514.01 559.247L1513.96 560.246L1513.96 560.246L1514.01 559.247ZM1518.58 559.496L1518.53 560.495L1519.58 560.548V559.496H1518.58ZM1518.58 559.164H1519.58V558.407L1518.85 558.202L1518.58 559.164ZM1476 547.212H1475V547.97L1475.73 548.175L1476 547.212ZM1476.27 532.902L1518.94 520.784L1518.39 518.861L1475.73 530.979L1476.27 532.902ZM1519.66 519.822V519.49H1517.66V519.822H1519.66ZM1518.56 518.495C1517.48 518.604 1516 518.714 1514.12 518.824L1514.24 520.821C1516.13 520.71 1517.64 520.598 1518.76 520.486L1518.56 518.495ZM1514.12 518.824C1512.24 518.935 1510.2 519.045 1507.99 519.156L1508.09 521.153C1510.3 521.042 1512.35 520.932 1514.24 520.821L1514.12 518.824ZM1507.99 519.156C1505.84 519.266 1503.76 519.32 1501.73 519.32V521.32C1503.8 521.32 1505.92 521.265 1508.09 521.153L1507.99 519.156ZM1501.73 519.32H1476V521.32H1501.73V519.32ZM1477 520.32V506.127H1475V520.32H1477ZM1476 507.127H1535.26V505.127H1476V507.127ZM1534.26 506.127V527.458H1536.26V506.127H1534.26ZM1534.98 526.499L1492.9 538.866L1493.46 540.785L1535.54 528.418L1534.98 526.499ZM1492.18 539.825V540.157H1494.18V539.825H1492.18ZM1492.9 541.118L1534.99 553.236L1535.54 551.315L1493.46 539.197L1492.9 541.118ZM1534.26 552.275V573.606H1536.26V552.275H1534.26ZM1535.26 572.606H1476V574.606H1535.26V572.606ZM1477 573.606V558.915H1475V573.606H1477ZM1476 559.915H1501.98V557.915H1476V559.915ZM1501.98 559.915C1503.85 559.915 1505.83 559.943 1507.93 559.998L1507.98 557.999C1505.87 557.943 1503.87 557.915 1501.98 557.915V559.915ZM1507.93 559.998C1510.08 560.053 1512.09 560.136 1513.96 560.246L1514.07 558.249C1512.18 558.138 1510.15 558.054 1507.98 557.999L1507.93 559.998ZM1513.96 560.246C1515.89 560.357 1517.42 560.44 1518.53 560.495L1518.63 558.498C1517.53 558.443 1516.01 558.36 1514.07 558.249L1513.96 560.246ZM1519.58 559.496V559.164H1517.58V559.496H1519.58ZM1518.85 558.202L1476.27 546.25L1475.73 548.175L1518.31 560.127L1518.85 558.202ZM1477 547.212V531.94H1475V547.212H1477ZM1476 652.772H1475V653.772H1476V652.772ZM1476 631.773L1475.54 630.885L1475 631.165V631.773H1476ZM1517.75 610.11L1518.21 610.997L1518.75 610.717V610.11H1517.75ZM1517.75 609.778H1518.75V608.653L1517.63 608.784L1517.75 609.778ZM1514.43 610.027L1514.39 609.028L1514.36 609.029L1514.34 609.03L1514.43 610.027ZM1510.45 610.276L1510.41 609.276L1510.45 610.276ZM1506.38 610.442L1506.42 611.441L1506.38 610.442ZM1476 610.525H1475V611.525H1476V610.525ZM1476 596.332V595.332H1475V596.332H1476ZM1535.26 596.332H1536.26V595.332H1535.26V596.332ZM1535.26 617.248L1535.73 618.133L1536.26 617.852V617.248H1535.26ZM1494.09 638.828L1493.63 637.942L1493.09 638.223V638.828H1494.09ZM1494.09 639.077H1493.09V640.137L1494.15 640.075L1494.09 639.077ZM1497.33 638.828L1497.29 637.829L1497.26 637.83L1497.24 637.832L1497.33 638.828ZM1501.15 638.662L1501.11 637.662L1501.11 637.663L1501.15 638.662ZM1505.05 638.496V637.496H1505.03L1505.01 637.497L1505.05 638.496ZM1535.26 638.496H1536.26V637.496H1535.26V638.496ZM1535.26 652.772V653.772H1536.26V652.772H1535.26ZM1477 652.772V631.773H1475V652.772H1477ZM1476.46 632.66L1518.21 610.997L1517.29 609.222L1475.54 630.885L1476.46 632.66ZM1518.75 610.11V609.778H1516.75V610.11H1518.75ZM1517.63 608.784C1516.72 608.891 1515.64 608.973 1514.39 609.028L1514.47 611.026C1515.76 610.97 1516.89 610.885 1517.87 610.771L1517.63 608.784ZM1514.34 609.03C1513.09 609.14 1511.77 609.222 1510.41 609.276L1510.48 611.275C1511.88 611.219 1513.23 611.135 1514.52 611.023L1514.34 609.03ZM1510.41 609.276C1509.02 609.332 1507.66 609.387 1506.34 609.442L1506.42 611.441C1507.75 611.385 1509.1 611.33 1510.48 611.275L1510.41 609.276ZM1506.34 609.442C1505.02 609.497 1503.82 609.525 1502.73 609.525V611.525C1503.85 611.525 1505.08 611.497 1506.42 611.441L1506.34 609.442ZM1502.73 609.525H1476V611.525H1502.73V609.525ZM1477 610.525V596.332H1475V610.525H1477ZM1476 597.332H1535.26V595.332H1476V597.332ZM1534.26 596.332V617.248H1536.26V596.332H1534.26ZM1534.8 616.362L1493.63 637.942L1494.56 639.713L1535.73 618.133L1534.8 616.362ZM1493.09 638.828V639.077H1495.09V638.828H1493.09ZM1494.15 640.075C1495.11 640.019 1496.2 639.935 1497.42 639.824L1497.24 637.832C1496.03 637.942 1494.96 638.024 1494.04 638.078L1494.15 640.075ZM1497.37 639.827C1498.65 639.771 1499.92 639.716 1501.19 639.661L1501.11 637.663C1499.83 637.718 1498.56 637.773 1497.29 637.829L1497.37 639.827ZM1501.19 639.661C1502.52 639.605 1503.82 639.55 1505.09 639.495L1505.01 637.497C1503.73 637.552 1502.43 637.607 1501.11 637.662L1501.19 639.661ZM1505.05 639.496C1505.05 639.496 1505.05 639.496 1505.06 639.496C1505.06 639.496 1505.06 639.496 1505.06 639.496C1505.07 639.496 1505.07 639.496 1505.07 639.496C1505.07 639.496 1505.08 639.496 1505.08 639.496C1505.08 639.496 1505.08 639.496 1505.09 639.496C1505.09 639.496 1505.09 639.496 1505.09 639.496C1505.1 639.496 1505.1 639.496 1505.1 639.496C1505.1 639.496 1505.11 639.496 1505.11 639.496C1505.11 639.496 1505.11 639.496 1505.12 639.496C1505.12 639.496 1505.12 639.496 1505.12 639.496C1505.13 639.496 1505.13 639.496 1505.13 639.496C1505.13 639.496 1505.14 639.496 1505.14 639.496C1505.14 639.496 1505.14 639.496 1505.15 639.496C1505.15 639.496 1505.15 639.496 1505.15 639.496C1505.16 639.496 1505.16 639.496 1505.16 639.496C1505.16 639.496 1505.17 639.496 1505.17 639.496C1505.17 639.496 1505.17 639.496 1505.18 639.496C1505.18 639.496 1505.18 639.496 1505.18 639.496C1505.19 639.496 1505.19 639.496 1505.19 639.496C1505.19 639.496 1505.2 639.496 1505.2 639.496C1505.2 639.496 1505.2 639.496 1505.21 639.496C1505.21 639.496 1505.21 639.496 1505.21 639.496C1505.22 639.496 1505.22 639.496 1505.22 639.496C1505.22 639.496 1505.23 639.496 1505.23 639.496C1505.23 639.496 1505.23 639.496 1505.24 639.496C1505.24 639.496 1505.24 639.496 1505.24 639.496C1505.25 639.496 1505.25 639.496 1505.25 639.496C1505.25 639.496 1505.26 639.496 1505.26 639.496C1505.26 639.496 1505.26 639.496 1505.26 639.496C1505.27 639.496 1505.27 639.496 1505.27 639.496C1505.27 639.496 1505.28 639.496 1505.28 639.496C1505.28 639.496 1505.28 639.496 1505.29 639.496C1505.29 639.496 1505.29 639.496 1505.29 639.496C1505.3 639.496 1505.3 639.496 1505.3 639.496C1505.3 639.496 1505.31 639.496 1505.31 639.496C1505.31 639.496 1505.31 639.496 1505.32 639.496C1505.32 639.496 1505.32 639.496 1505.32 639.496C1505.33 639.496 1505.33 639.496 1505.33 639.496C1505.33 639.496 1505.34 639.496 1505.34 639.496C1505.34 639.496 1505.34 639.496 1505.35 639.496C1505.35 639.496 1505.35 639.496 1505.35 639.496C1505.36 639.496 1505.36 639.496 1505.36 639.496C1505.36 639.496 1505.37 639.496 1505.37 639.496C1505.37 639.496 1505.37 639.496 1505.38 639.496C1505.38 639.496 1505.38 639.496 1505.38 639.496C1505.38 639.496 1505.39 639.496 1505.39 639.496C1505.39 639.496 1505.39 639.496 1505.4 639.496C1505.4 639.496 1505.4 639.496 1505.4 639.496C1505.41 639.496 1505.41 639.496 1505.41 639.496C1505.41 639.496 1505.42 639.496 1505.42 639.496C1505.42 639.496 1505.42 639.496 1505.43 639.496C1505.43 639.496 1505.43 639.496 1505.43 639.496C1505.44 639.496 1505.44 639.496 1505.44 639.496C1505.44 639.496 1505.45 639.496 1505.45 639.496C1505.45 639.496 1505.45 639.496 1505.46 639.496C1505.46 639.496 1505.46 639.496 1505.46 639.496C1505.47 639.496 1505.47 639.496 1505.47 639.496C1505.47 639.496 1505.47 639.496 1505.48 639.496C1505.48 639.496 1505.48 639.496 1505.48 639.496C1505.49 639.496 1505.49 639.496 1505.49 639.496C1505.49 639.496 1505.5 639.496 1505.5 639.496C1505.5 639.496 1505.5 639.496 1505.51 639.496C1505.51 639.496 1505.51 639.496 1505.51 639.496C1505.52 639.496 1505.52 639.496 1505.52 639.496C1505.52 639.496 1505.53 639.496 1505.53 639.496C1505.53 639.496 1505.53 639.496 1505.54 639.496C1505.54 639.496 1505.54 639.496 1505.54 639.496C1505.54 639.496 1505.55 639.496 1505.55 639.496C1505.55 639.496 1505.55 639.496 1505.56 639.496C1505.56 639.496 1505.56 639.496 1505.56 639.496C1505.57 639.496 1505.57 639.496 1505.57 639.496C1505.57 639.496 1505.58 639.496 1505.58 639.496C1505.58 639.496 1505.58 639.496 1505.59 639.496C1505.59 639.496 1505.59 639.496 1505.59 639.496C1505.6 639.496 1505.6 639.496 1505.6 639.496C1505.6 639.496 1505.61 639.496 1505.61 639.496C1505.61 639.496 1505.61 639.496 1505.61 639.496C1505.62 639.496 1505.62 639.496 1505.62 639.496C1505.62 639.496 1505.63 639.496 1505.63 639.496C1505.63 639.496 1505.63 639.496 1505.64 639.496C1505.64 639.496 1505.64 639.496 1505.64 639.496C1505.65 639.496 1505.65 639.496 1505.65 639.496C1505.65 639.496 1505.66 639.496 1505.66 639.496C1505.66 639.496 1505.66 639.496 1505.67 639.496C1505.67 639.496 1505.67 639.496 1505.67 639.496C1505.67 639.496 1505.68 639.496 1505.68 639.496C1505.68 639.496 1505.68 639.496 1505.69 639.496C1505.69 639.496 1505.69 639.496 1505.69 639.496C1505.7 639.496 1505.7 639.496 1505.7 639.496C1505.7 639.496 1505.71 639.496 1505.71 639.496C1505.71 639.496 1505.71 639.496 1505.72 639.496C1505.72 639.496 1505.72 639.496 1505.72 639.496C1505.73 639.496 1505.73 639.496 1505.73 639.496C1505.73 639.496 1505.73 639.496 1505.74 639.496C1505.74 639.496 1505.74 639.496 1505.74 639.496C1505.75 639.496 1505.75 639.496 1505.75 639.496C1505.75 639.496 1505.76 639.496 1505.76 639.496C1505.76 639.496 1505.76 639.496 1505.77 639.496C1505.77 639.496 1505.77 639.496 1505.77 639.496C1505.78 639.496 1505.78 639.496 1505.78 639.496C1505.78 639.496 1505.78 639.496 1505.79 639.496C1505.79 639.496 1505.79 639.496 1505.79 639.496C1505.8 639.496 1505.8 639.496 1505.8 639.496C1505.8 639.496 1505.81 639.496 1505.81 639.496C1505.81 639.496 1505.81 639.496 1505.82 639.496C1505.82 639.496 1505.82 639.496 1505.82 639.496C1505.83 639.496 1505.83 639.496 1505.83 639.496C1505.83 639.496 1505.83 639.496 1505.84 639.496C1505.84 639.496 1505.84 639.496 1505.84 639.496C1505.85 639.496 1505.85 639.496 1505.85 639.496C1505.85 639.496 1505.86 639.496 1505.86 639.496C1505.86 639.496 1505.86 639.496 1505.87 639.496C1505.87 639.496 1505.87 639.496 1505.87 639.496C1505.87 639.496 1505.88 639.496 1505.88 639.496C1505.88 639.496 1505.88 639.496 1505.89 639.496C1505.89 639.496 1505.89 639.496 1505.89 639.496C1505.9 639.496 1505.9 639.496 1505.9 639.496C1505.9 639.496 1505.91 639.496 1505.91 639.496C1505.91 639.496 1505.91 639.496 1505.91 639.496C1505.92 639.496 1505.92 639.496 1505.92 639.496C1505.92 639.496 1505.93 639.496 1505.93 639.496C1505.93 639.496 1505.93 639.496 1505.94 639.496C1505.94 639.496 1505.94 639.496 1505.94 639.496C1505.95 639.496 1505.95 639.496 1505.95 639.496C1505.95 639.496 1505.96 639.496 1505.96 639.496C1505.96 639.496 1505.96 639.496 1505.96 639.496C1505.97 639.496 1505.97 639.496 1505.97 639.496C1505.97 639.496 1505.98 639.496 1505.98 639.496C1505.98 639.496 1505.98 639.496 1505.99 639.496C1505.99 639.496 1505.99 639.496 1505.99 639.496C1506 639.496 1506 639.496 1506 639.496C1506 639.496 1506 639.496 1506.01 639.496C1506.01 639.496 1506.01 639.496 1506.01 639.496C1506.02 639.496 1506.02 639.496 1506.02 639.496C1506.02 639.496 1506.03 639.496 1506.03 639.496C1506.03 639.496 1506.03 639.496 1506.03 639.496C1506.04 639.496 1506.04 639.496 1506.04 639.496C1506.04 639.496 1506.05 639.496 1506.05 639.496C1506.05 639.496 1506.05 639.496 1506.06 639.496C1506.06 639.496 1506.06 639.496 1506.06 639.496C1506.07 639.496 1506.07 639.496 1506.07 639.496C1506.07 639.496 1506.07 639.496 1506.08 639.496C1506.08 639.496 1506.08 639.496 1506.08 639.496C1506.09 639.496 1506.09 639.496 1506.09 639.496C1506.09 639.496 1506.1 639.496 1506.1 639.496C1506.1 639.496 1506.1 639.496 1506.1 639.496C1506.11 639.496 1506.11 639.496 1506.11 639.496C1506.11 639.496 1506.12 639.496 1506.12 639.496C1506.12 639.496 1506.12 639.496 1506.13 639.496C1506.13 639.496 1506.13 639.496 1506.13 639.496C1506.14 639.496 1506.14 639.496 1506.14 639.496C1506.14 639.496 1506.14 639.496 1506.15 639.496C1506.15 639.496 1506.15 639.496 1506.15 639.496C1506.16 639.496 1506.16 639.496 1506.16 639.496C1506.16 639.496 1506.17 639.496 1506.17 639.496C1506.17 639.496 1506.17 639.496 1506.17 639.496C1506.18 639.496 1506.18 639.496 1506.18 639.496C1506.18 639.496 1506.19 639.496 1506.19 639.496C1506.19 639.496 1506.19 639.496 1506.2 639.496C1506.2 639.496 1506.2 639.496 1506.2 639.496C1506.2 639.496 1506.21 639.496 1506.21 639.496C1506.21 639.496 1506.21 639.496 1506.22 639.496C1506.22 639.496 1506.22 639.496 1506.22 639.496C1506.23 639.496 1506.23 639.496 1506.23 639.496C1506.23 639.496 1506.24 639.496 1506.24 639.496C1506.24 639.496 1506.24 639.496 1506.24 639.496C1506.25 639.496 1506.25 639.496 1506.25 639.496C1506.25 639.496 1506.26 639.496 1506.26 639.496C1506.26 639.496 1506.26 639.496 1506.27 639.496C1506.27 639.496 1506.27 639.496 1506.27 639.496C1506.27 639.496 1506.28 639.496 1506.28 639.496C1506.28 639.496 1506.28 639.496 1506.29 639.496C1506.29 639.496 1506.29 639.496 1506.29 639.496C1506.29 639.496 1506.3 639.496 1506.3 639.496C1506.3 639.496 1506.3 639.496 1506.31 639.496C1506.31 639.496 1506.31 639.496 1506.31 639.496C1506.32 639.496 1506.32 639.496 1506.32 639.496C1506.32 639.496 1506.32 639.496 1506.33 639.496C1506.33 639.496 1506.33 639.496 1506.33 639.496C1506.34 639.496 1506.34 639.496 1506.34 639.496C1506.34 639.496 1506.35 639.496 1506.35 639.496C1506.35 639.496 1506.35 639.496 1506.35 639.496C1506.36 639.496 1506.36 639.496 1506.36 639.496C1506.36 639.496 1506.37 639.496 1506.37 639.496C1506.37 639.496 1506.37 639.496 1506.38 639.496C1506.38 639.496 1506.38 639.496 1506.38 639.496C1506.38 639.496 1506.39 639.496 1506.39 639.496C1506.39 639.496 1506.39 639.496 1506.4 639.496C1506.4 639.496 1506.4 639.496 1506.4 639.496C1506.41 639.496 1506.41 639.496 1506.41 639.496C1506.41 639.496 1506.41 639.496 1506.42 639.496C1506.42 639.496 1506.42 639.496 1506.42 639.496C1506.43 639.496 1506.43 639.496 1506.43 639.496C1506.43 639.496 1506.43 639.496 1506.44 639.496C1506.44 639.496 1506.44 639.496 1506.44 639.496C1506.45 639.496 1506.45 639.496 1506.45 639.496C1506.45 639.496 1506.46 639.496 1506.46 639.496C1506.46 639.496 1506.46 639.496 1506.46 639.496C1506.47 639.496 1506.47 639.496 1506.47 639.496C1506.47 639.496 1506.48 639.496 1506.48 639.496C1506.48 639.496 1506.48 639.496 1506.48 639.496C1506.49 639.496 1506.49 639.496 1506.49 639.496C1506.49 639.496 1506.5 639.496 1506.5 639.496C1506.5 639.496 1506.5 639.496 1506.51 639.496C1506.51 639.496 1506.51 639.496 1506.51 639.496C1506.51 639.496 1506.52 639.496 1506.52 639.496C1506.52 639.496 1506.52 639.496 1506.53 639.496C1506.53 639.496 1506.53 639.496 1506.53 639.496C1506.53 639.496 1506.54 639.496 1506.54 639.496C1506.54 639.496 1506.54 639.496 1506.55 639.496C1506.55 639.496 1506.55 639.496 1506.55 639.496C1506.56 639.496 1506.56 639.496 1506.56 639.496C1506.56 639.496 1506.56 639.496 1506.57 639.496C1506.57 639.496 1506.57 639.496 1506.57 639.496C1506.58 639.496 1506.58 639.496 1506.58 639.496C1506.58 639.496 1506.58 639.496 1506.59 639.496C1506.59 639.496 1506.59 639.496 1506.59 639.496C1506.6 639.496 1506.6 639.496 1506.6 639.496C1506.6 639.496 1506.6 639.496 1506.61 639.496C1506.61 639.496 1506.61 639.496 1506.61 639.496C1506.62 639.496 1506.62 639.496 1506.62 639.496C1506.62 639.496 1506.63 639.496 1506.63 639.496C1506.63 639.496 1506.63 639.496 1506.63 639.496C1506.64 639.496 1506.64 639.496 1506.64 639.496C1506.64 639.496 1506.65 639.496 1506.65 639.496C1506.65 639.496 1506.65 639.496 1506.65 639.496C1506.66 639.496 1506.66 639.496 1506.66 639.496C1506.66 639.496 1506.67 639.496 1506.67 639.496C1506.67 639.496 1506.67 639.496 1506.67 639.496C1506.68 639.496 1506.68 639.496 1506.68 639.496C1506.68 639.496 1506.69 639.496 1506.69 639.496C1506.69 639.496 1506.69 639.496 1506.69 639.496C1506.7 639.496 1506.7 639.496 1506.7 639.496C1506.7 639.496 1506.71 639.496 1506.71 639.496C1506.71 639.496 1506.71 639.496 1506.71 639.496C1506.72 639.496 1506.72 639.496 1506.72 639.496C1506.72 639.496 1506.73 639.496 1506.73 639.496C1506.73 639.496 1506.73 639.496 1506.74 639.496C1506.74 639.496 1506.74 639.496 1506.74 639.496C1506.74 639.496 1506.75 639.496 1506.75 639.496C1506.75 639.496 1506.75 639.496 1506.76 639.496C1506.76 639.496 1506.76 639.496 1506.76 639.496C1506.76 639.496 1506.77 639.496 1506.77 639.496C1506.77 639.496 1506.77 639.496 1506.78 639.496C1506.78 639.496 1506.78 639.496 1506.78 639.496C1506.78 639.496 1506.79 639.496 1506.79 639.496C1506.79 639.496 1506.79 639.496 1506.8 639.496C1506.8 639.496 1506.8 639.496 1506.8 639.496C1506.8 639.496 1506.81 639.496 1506.81 639.496C1506.81 639.496 1506.81 639.496 1506.82 639.496C1506.82 639.496 1506.82 639.496 1506.82 639.496C1506.82 639.496 1506.83 639.496 1506.83 639.496C1506.83 639.496 1506.83 639.496 1506.84 639.496C1506.84 639.496 1506.84 639.496 1506.84 639.496C1506.84 639.496 1506.85 639.496 1506.85 639.496C1506.85 639.496 1506.85 639.496 1506.86 639.496C1506.86 639.496 1506.86 639.496 1506.86 639.496C1506.86 639.496 1506.87 639.496 1506.87 639.496C1506.87 639.496 1506.87 639.496 1506.88 639.496C1506.88 639.496 1506.88 639.496 1506.88 639.496C1506.88 639.496 1506.89 639.496 1506.89 639.496C1506.89 639.496 1506.89 639.496 1506.9 639.496C1506.9 639.496 1506.9 639.496 1506.9 639.496C1506.9 639.496 1506.91 639.496 1506.91 639.496C1506.91 639.496 1506.91 639.496 1506.91 639.496C1506.92 639.496 1506.92 639.496 1506.92 639.496C1506.92 639.496 1506.93 639.496 1506.93 639.496C1506.93 639.496 1506.93 639.496 1506.93 639.496C1506.94 639.496 1506.94 639.496 1506.94 639.496C1506.94 639.496 1506.95 639.496 1506.95 639.496C1506.95 639.496 1506.95 639.496 1506.95 639.496C1506.96 639.496 1506.96 639.496 1506.96 639.496C1506.96 639.496 1506.97 639.496 1506.97 639.496C1506.97 639.496 1506.97 639.496 1506.97 639.496C1506.98 639.496 1506.98 639.496 1506.98 639.496C1506.98 639.496 1506.99 639.496 1506.99 639.496C1506.99 639.496 1506.99 639.496 1506.99 639.496C1507 639.496 1507 639.496 1507 639.496C1507 639.496 1507.01 639.496 1507.01 639.496C1507.01 639.496 1507.01 639.496 1507.01 639.496C1507.02 639.496 1507.02 639.496 1507.02 639.496C1507.02 639.496 1507.02 639.496 1507.03 639.496C1507.03 639.496 1507.03 639.496 1507.03 639.496C1507.04 639.496 1507.04 639.496 1507.04 639.496C1507.04 639.496 1507.04 639.496 1507.05 639.496C1507.05 639.496 1507.05 639.496 1507.05 639.496C1507.06 639.496 1507.06 639.496 1507.06 639.496C1507.06 639.496 1507.06 639.496 1507.07 639.496C1507.07 639.496 1507.07 639.496 1507.07 639.496C1507.08 639.496 1507.08 639.496 1507.08 639.496C1507.08 639.496 1507.08 639.496 1507.09 639.496C1507.09 639.496 1507.09 639.496 1507.09 639.496C1507.09 639.496 1507.1 639.496 1507.1 639.496C1507.1 639.496 1507.1 639.496 1507.11 639.496C1507.11 639.496 1507.11 639.496 1507.11 639.496C1507.11 639.496 1507.12 639.496 1507.12 639.496C1507.12 639.496 1507.12 639.496 1507.13 639.496C1507.13 639.496 1507.13 639.496 1507.13 639.496C1507.13 639.496 1507.14 639.496 1507.14 639.496C1507.14 639.496 1507.14 639.496 1507.14 639.496C1507.15 639.496 1507.15 639.496 1507.15 639.496C1507.15 639.496 1507.16 639.496 1507.16 639.496C1507.16 639.496 1507.16 639.496 1507.16 639.496C1507.17 639.496 1507.17 639.496 1507.17 639.496C1507.17 639.496 1507.17 639.496 1507.18 639.496C1507.18 639.496 1507.18 639.496 1507.18 639.496C1507.19 639.496 1507.19 639.496 1507.19 639.496C1507.19 639.496 1507.19 639.496 1507.2 639.496C1507.2 639.496 1507.2 639.496 1507.2 639.496C1507.21 639.496 1507.21 639.496 1507.21 639.496C1507.21 639.496 1507.21 639.496 1507.22 639.496C1507.22 639.496 1507.22 639.496 1507.22 639.496C1507.22 639.496 1507.23 639.496 1507.23 639.496C1507.23 639.496 1507.23 639.496 1507.24 639.496C1507.24 639.496 1507.24 639.496 1507.24 639.496C1507.24 639.496 1507.25 639.496 1507.25 639.496C1507.25 639.496 1507.25 639.496 1507.25 639.496C1507.26 639.496 1507.26 639.496 1507.26 639.496C1507.26 639.496 1507.27 639.496 1507.27 639.496C1507.27 639.496 1507.27 639.496 1507.27 639.496C1507.28 639.496 1507.28 639.496 1507.28 639.496C1507.28 639.496 1507.28 639.496 1507.29 639.496C1507.29 639.496 1507.29 639.496 1507.29 639.496C1507.3 639.496 1507.3 639.496 1507.3 639.496C1507.3 639.496 1507.3 639.496 1507.31 639.496C1507.31 639.496 1507.31 639.496 1507.31 639.496C1507.31 639.496 1507.32 639.496 1507.32 639.496C1507.32 639.496 1507.32 639.496 1507.33 639.496C1507.33 639.496 1507.33 639.496 1507.33 639.496C1507.33 639.496 1507.34 639.496 1507.34 639.496C1507.34 639.496 1507.34 639.496 1507.34 639.496C1507.35 639.496 1507.35 639.496 1507.35 639.496C1507.35 639.496 1507.36 639.496 1507.36 639.496C1507.36 639.496 1507.36 639.496 1507.36 639.496C1507.37 639.496 1507.37 639.496 1507.37 639.496C1507.37 639.496 1507.37 639.496 1507.38 639.496C1507.38 639.496 1507.38 639.496 1507.38 639.496C1507.39 639.496 1507.39 639.496 1507.39 639.496C1507.39 639.496 1507.39 639.496 1507.4 639.496C1507.4 639.496 1507.4 639.496 1507.4 639.496C1507.4 639.496 1507.41 639.496 1507.41 639.496C1507.41 639.496 1507.41 639.496 1507.42 639.496C1507.42 639.496 1507.42 639.496 1507.42 639.496C1507.42 639.496 1507.43 639.496 1507.43 639.496C1507.43 639.496 1507.43 639.496 1507.43 639.496C1507.44 639.496 1507.44 639.496 1507.44 639.496C1507.44 639.496 1507.44 639.496 1507.45 639.496C1507.45 639.496 1507.45 639.496 1507.45 639.496C1507.46 639.496 1507.46 639.496 1507.46 639.496C1507.46 639.496 1507.46 639.496 1507.47 639.496C1507.47 639.496 1507.47 639.496 1507.47 639.496C1507.47 639.496 1507.48 639.496 1507.48 639.496C1507.48 639.496 1507.48 639.496 1507.49 639.496C1507.49 639.496 1507.49 639.496 1507.49 639.496C1507.49 639.496 1507.5 639.496 1507.5 639.496C1507.5 639.496 1507.5 639.496 1507.5 639.496C1507.51 639.496 1507.51 639.496 1507.51 639.496C1507.51 639.496 1507.51 639.496 1507.52 639.496C1507.52 639.496 1507.52 639.496 1507.52 639.496C1507.53 639.496 1507.53 639.496 1507.53 639.496C1507.53 639.496 1507.53 639.496 1507.54 639.496C1507.54 639.496 1507.54 639.496 1507.54 639.496C1507.54 639.496 1507.55 639.496 1507.55 639.496C1507.55 639.496 1507.55 639.496 1507.55 639.496C1507.56 639.496 1507.56 639.496 1507.56 639.496C1507.56 639.496 1507.57 639.496 1507.57 639.496C1507.57 639.496 1507.57 639.496 1507.57 639.496C1507.58 639.496 1507.58 639.496 1507.58 639.496C1507.58 639.496 1507.58 639.496 1507.59 639.496C1507.59 639.496 1507.59 639.496 1507.59 639.496C1507.59 639.496 1507.6 639.496 1507.6 639.496C1507.6 639.496 1507.6 639.496 1507.6 639.496C1507.61 639.496 1507.61 639.496 1507.61 639.496C1507.61 639.496 1507.62 639.496 1507.62 639.496C1507.62 639.496 1507.62 639.496 1507.62 639.496C1507.63 639.496 1507.63 639.496 1507.63 639.496C1507.63 639.496 1507.63 639.496 1507.64 639.496C1507.64 639.496 1507.64 639.496 1507.64 639.496C1507.64 639.496 1507.65 639.496 1507.65 639.496C1507.65 639.496 1507.65 639.496 1507.66 639.496C1507.66 639.496 1507.66 639.496 1507.66 639.496C1507.66 639.496 1507.67 639.496 1507.67 639.496C1507.67 639.496 1507.67 639.496 1507.67 639.496C1507.68 639.496 1507.68 639.496 1507.68 639.496C1507.68 639.496 1507.68 639.496 1507.69 639.496C1507.69 639.496 1507.69 639.496 1507.69 639.496C1507.69 639.496 1507.7 639.496 1507.7 639.496C1507.7 639.496 1507.7 639.496 1507.71 639.496C1507.71 639.496 1507.71 639.496 1507.71 639.496C1507.71 639.496 1507.72 639.496 1507.72 639.496C1507.72 639.496 1507.72 639.496 1507.72 639.496C1507.73 639.496 1507.73 639.496 1507.73 639.496C1507.73 639.496 1507.73 639.496 1507.74 639.496C1507.74 639.496 1507.74 639.496 1507.74 639.496C1507.74 639.496 1507.75 639.496 1507.75 639.496C1507.75 639.496 1507.75 639.496 1507.75 639.496C1507.76 639.496 1507.76 639.496 1507.76 639.496C1507.76 639.496 1507.77 639.496 1507.77 639.496C1507.77 639.496 1507.77 639.496 1507.77 639.496C1507.78 639.496 1507.78 639.496 1507.78 639.496C1507.78 639.496 1507.78 639.496 1507.79 639.496C1507.79 639.496 1507.79 639.496 1507.79 639.496C1507.79 639.496 1507.8 639.496 1507.8 639.496C1507.8 639.496 1507.8 639.496 1507.8 639.496C1507.81 639.496 1507.81 639.496 1507.81 639.496C1507.81 639.496 1507.81 639.496 1507.82 639.496C1507.82 639.496 1507.82 639.496 1507.82 639.496C1507.82 639.496 1507.83 639.496 1507.83 639.496C1507.83 639.496 1507.83 639.496 1507.84 639.496C1507.84 639.496 1507.84 639.496 1507.84 639.496C1507.84 639.496 1507.85 639.496 1507.85 639.496C1507.85 639.496 1507.85 639.496 1507.85 639.496C1507.86 639.496 1507.86 639.496 1507.86 639.496C1507.86 639.496 1507.86 639.496 1507.87 639.496C1507.87 639.496 1507.87 639.496 1507.87 639.496C1507.87 639.496 1507.88 639.496 1507.88 639.496C1507.88 639.496 1507.88 639.496 1507.88 639.496C1507.89 639.496 1507.89 639.496 1507.89 639.496C1507.89 639.496 1507.89 639.496 1507.9 639.496C1507.9 639.496 1507.9 639.496 1507.9 639.496C1507.9 639.496 1507.91 639.496 1507.91 639.496C1507.91 639.496 1507.91 639.496 1507.91 639.496C1507.92 639.496 1507.92 639.496 1507.92 639.496C1507.92 639.496 1507.93 639.496 1507.93 639.496C1507.93 639.496 1507.93 639.496 1507.93 639.496C1507.94 639.496 1507.94 639.496 1507.94 639.496C1507.94 639.496 1507.94 639.496 1507.95 639.496C1507.95 639.496 1507.95 639.496 1507.95 639.496C1507.95 639.496 1507.96 639.496 1507.96 639.496C1507.96 639.496 1507.96 639.496 1507.96 639.496C1507.97 639.496 1507.97 639.496 1507.97 639.496C1507.97 639.496 1507.97 639.496 1507.98 639.496C1507.98 639.496 1507.98 639.496 1507.98 639.496C1507.98 639.496 1507.99 639.496 1507.99 639.496C1507.99 639.496 1507.99 639.496 1507.99 639.496C1508 639.496 1508 639.496 1508 639.496C1508 639.496 1508 639.496 1508.01 639.496C1508.01 639.496 1508.01 639.496 1508.01 639.496C1508.01 639.496 1508.02 639.496 1508.02 639.496C1508.02 639.496 1508.02 639.496 1508.02 639.496C1508.03 639.496 1508.03 639.496 1508.03 639.496C1508.03 639.496 1508.03 639.496 1508.04 639.496C1508.04 639.496 1508.04 639.496 1508.04 639.496C1508.04 639.496 1508.05 639.496 1508.05 639.496C1508.05 639.496 1508.05 639.496 1508.05 639.496C1508.06 639.496 1508.06 639.496 1508.06 639.496C1508.06 639.496 1508.06 639.496 1508.07 639.496C1508.07 639.496 1508.07 639.496 1508.07 639.496C1508.08 639.496 1508.08 639.496 1508.08 639.496C1508.08 639.496 1508.08 639.496 1508.09 639.496C1508.09 639.496 1508.09 639.496 1508.09 639.496C1508.09 639.496 1508.1 639.496 1508.1 639.496C1508.1 639.496 1508.1 639.496 1508.1 639.496C1508.11 639.496 1508.11 639.496 1508.11 639.496C1508.11 639.496 1508.11 639.496 1508.12 639.496C1508.12 639.496 1508.12 639.496 1508.12 639.496C1508.12 639.496 1508.13 639.496 1508.13 639.496C1508.13 639.496 1508.13 639.496 1508.13 639.496C1508.14 639.496 1508.14 639.496 1508.14 639.496C1508.14 639.496 1508.14 639.496 1508.15 639.496C1508.15 639.496 1508.15 639.496 1508.15 639.496C1508.15 639.496 1508.16 639.496 1508.16 639.496C1508.16 639.496 1508.16 639.496 1508.16 639.496C1508.17 639.496 1508.17 639.496 1508.17 639.496C1508.17 639.496 1508.17 639.496 1508.18 639.496C1508.18 639.496 1508.18 639.496 1508.18 639.496C1508.18 639.496 1508.19 639.496 1508.19 639.496C1508.19 639.496 1508.19 639.496 1508.19 639.496C1508.2 639.496 1508.2 639.496 1508.2 639.496C1508.2 639.496 1508.2 639.496 1508.21 639.496C1508.21 639.496 1508.21 639.496 1508.21 639.496C1508.21 639.496 1508.22 639.496 1508.22 639.496C1508.22 639.496 1508.22 639.496 1508.22 639.496C1508.22 639.496 1508.23 639.496 1508.23 639.496C1508.23 639.496 1508.23 639.496 1508.23 639.496C1508.24 639.496 1508.24 639.496 1508.24 639.496C1508.24 639.496 1508.24 639.496 1508.25 639.496C1508.25 639.496 1508.25 639.496 1508.25 639.496C1508.25 639.496 1508.26 639.496 1508.26 639.496C1508.26 639.496 1508.26 639.496 1508.26 639.496C1508.27 639.496 1508.27 639.496 1508.27 639.496C1508.27 639.496 1508.27 639.496 1508.28 639.496C1508.28 639.496 1508.28 639.496 1508.28 639.496C1508.28 639.496 1508.29 639.496 1508.29 639.496C1508.29 639.496 1508.29 639.496 1508.29 639.496C1508.3 639.496 1508.3 639.496 1508.3 639.496C1508.3 639.496 1508.3 639.496 1508.31 639.496C1508.31 639.496 1508.31 639.496 1508.31 639.496C1508.31 639.496 1508.32 639.496 1508.32 639.496C1508.32 639.496 1508.32 639.496 1508.32 639.496C1508.33 639.496 1508.33 639.496 1508.33 639.496C1508.33 639.496 1508.33 639.496 1508.34 639.496C1508.34 639.496 1508.34 639.496 1508.34 639.496C1508.34 639.496 1508.35 639.496 1508.35 639.496C1508.35 639.496 1508.35 639.496 1508.35 639.496C1508.36 639.496 1508.36 639.496 1508.36 639.496C1508.36 639.496 1508.36 639.496 1508.37 639.496C1508.37 639.496 1508.37 639.496 1508.37 639.496C1508.37 639.496 1508.37 639.496 1508.38 639.496C1508.38 639.496 1508.38 639.496 1508.38 639.496C1508.38 639.496 1508.39 639.496 1508.39 639.496C1508.39 639.496 1508.39 639.496 1508.39 639.496C1508.4 639.496 1508.4 639.496 1508.4 639.496C1508.4 639.496 1508.4 639.496 1508.41 639.496C1508.41 639.496 1508.41 639.496 1508.41 639.496C1508.41 639.496 1508.42 639.496 1508.42 639.496C1508.42 639.496 1508.42 639.496 1508.42 639.496C1508.43 639.496 1508.43 639.496 1508.43 639.496C1508.43 639.496 1508.43 639.496 1508.44 639.496C1508.44 639.496 1508.44 639.496 1508.44 639.496C1508.44 639.496 1508.45 639.496 1508.45 639.496C1508.45 639.496 1508.45 639.496 1508.45 639.496V637.496C1508.45 637.496 1508.45 637.496 1508.45 637.496C1508.45 637.496 1508.44 637.496 1508.44 637.496C1508.44 637.496 1508.44 637.496 1508.44 637.496C1508.43 637.496 1508.43 637.496 1508.43 637.496C1508.43 637.496 1508.43 637.496 1508.42 637.496C1508.42 637.496 1508.42 637.496 1508.42 637.496C1508.42 637.496 1508.41 637.496 1508.41 637.496C1508.41 637.496 1508.41 637.496 1508.41 637.496C1508.4 637.496 1508.4 637.496 1508.4 637.496C1508.4 637.496 1508.4 637.496 1508.39 637.496C1508.39 637.496 1508.39 637.496 1508.39 637.496C1508.39 637.496 1508.38 637.496 1508.38 637.496C1508.38 637.496 1508.38 637.496 1508.38 637.496C1508.37 637.496 1508.37 637.496 1508.37 637.496C1508.37 637.496 1508.37 637.496 1508.37 637.496C1508.36 637.496 1508.36 637.496 1508.36 637.496C1508.36 637.496 1508.36 637.496 1508.35 637.496C1508.35 637.496 1508.35 637.496 1508.35 637.496C1508.35 637.496 1508.34 637.496 1508.34 637.496C1508.34 637.496 1508.34 637.496 1508.34 637.496C1508.33 637.496 1508.33 637.496 1508.33 637.496C1508.33 637.496 1508.33 637.496 1508.32 637.496C1508.32 637.496 1508.32 637.496 1508.32 637.496C1508.32 637.496 1508.31 637.496 1508.31 637.496C1508.31 637.496 1508.31 637.496 1508.31 637.496C1508.3 637.496 1508.3 637.496 1508.3 637.496C1508.3 637.496 1508.3 637.496 1508.29 637.496C1508.29 637.496 1508.29 637.496 1508.29 637.496C1508.29 637.496 1508.28 637.496 1508.28 637.496C1508.28 637.496 1508.28 637.496 1508.28 637.496C1508.27 637.496 1508.27 637.496 1508.27 637.496C1508.27 637.496 1508.27 637.496 1508.26 637.496C1508.26 637.496 1508.26 637.496 1508.26 637.496C1508.26 637.496 1508.25 637.496 1508.25 637.496C1508.25 637.496 1508.25 637.496 1508.25 637.496C1508.24 637.496 1508.24 637.496 1508.24 637.496C1508.24 637.496 1508.24 637.496 1508.23 637.496C1508.23 637.496 1508.23 637.496 1508.23 637.496C1508.23 637.496 1508.22 637.496 1508.22 637.496C1508.22 637.496 1508.22 637.496 1508.22 637.496C1508.22 637.496 1508.21 637.496 1508.21 637.496C1508.21 637.496 1508.21 637.496 1508.21 637.496C1508.2 637.496 1508.2 637.496 1508.2 637.496C1508.2 637.496 1508.2 637.496 1508.19 637.496C1508.19 637.496 1508.19 637.496 1508.19 637.496C1508.19 637.496 1508.18 637.496 1508.18 637.496C1508.18 637.496 1508.18 637.496 1508.18 637.496C1508.17 637.496 1508.17 637.496 1508.17 637.496C1508.17 637.496 1508.17 637.496 1508.16 637.496C1508.16 637.496 1508.16 637.496 1508.16 637.496C1508.16 637.496 1508.15 637.496 1508.15 637.496C1508.15 637.496 1508.15 637.496 1508.15 637.496C1508.14 637.496 1508.14 637.496 1508.14 637.496C1508.14 637.496 1508.14 637.496 1508.13 637.496C1508.13 637.496 1508.13 637.496 1508.13 637.496C1508.13 637.496 1508.12 637.496 1508.12 637.496C1508.12 637.496 1508.12 637.496 1508.12 637.496C1508.11 637.496 1508.11 637.496 1508.11 637.496C1508.11 637.496 1508.11 637.496 1508.1 637.496C1508.1 637.496 1508.1 637.496 1508.1 637.496C1508.1 637.496 1508.09 637.496 1508.09 637.496C1508.09 637.496 1508.09 637.496 1508.09 637.496C1508.08 637.496 1508.08 637.496 1508.08 637.496C1508.08 637.496 1508.08 637.496 1508.07 637.496C1508.07 637.496 1508.07 637.496 1508.07 637.496C1508.06 637.496 1508.06 637.496 1508.06 637.496C1508.06 637.496 1508.06 637.496 1508.05 637.496C1508.05 637.496 1508.05 637.496 1508.05 637.496C1508.05 637.496 1508.04 637.496 1508.04 637.496C1508.04 637.496 1508.04 637.496 1508.04 637.496C1508.03 637.496 1508.03 637.496 1508.03 637.496C1508.03 637.496 1508.03 637.496 1508.02 637.496C1508.02 637.496 1508.02 637.496 1508.02 637.496C1508.02 637.496 1508.01 637.496 1508.01 637.496C1508.01 637.496 1508.01 637.496 1508.01 637.496C1508 637.496 1508 637.496 1508 637.496C1508 637.496 1508 637.496 1507.99 637.496C1507.99 637.496 1507.99 637.496 1507.99 637.496C1507.99 637.496 1507.98 637.496 1507.98 637.496C1507.98 637.496 1507.98 637.496 1507.98 637.496C1507.97 637.496 1507.97 637.496 1507.97 637.496C1507.97 637.496 1507.97 637.496 1507.96 637.496C1507.96 637.496 1507.96 637.496 1507.96 637.496C1507.96 637.496 1507.95 637.496 1507.95 637.496C1507.95 637.496 1507.95 637.496 1507.95 637.496C1507.94 637.496 1507.94 637.496 1507.94 637.496C1507.94 637.496 1507.94 637.496 1507.93 637.496C1507.93 637.496 1507.93 637.496 1507.93 637.496C1507.93 637.496 1507.92 637.496 1507.92 637.496C1507.92 637.496 1507.92 637.496 1507.91 637.496C1507.91 637.496 1507.91 637.496 1507.91 637.496C1507.91 637.496 1507.9 637.496 1507.9 637.496C1507.9 637.496 1507.9 637.496 1507.9 637.496C1507.89 637.496 1507.89 637.496 1507.89 637.496C1507.89 637.496 1507.89 637.496 1507.88 637.496C1507.88 637.496 1507.88 637.496 1507.88 637.496C1507.88 637.496 1507.87 637.496 1507.87 637.496C1507.87 637.496 1507.87 637.496 1507.87 637.496C1507.86 637.496 1507.86 637.496 1507.86 637.496C1507.86 637.496 1507.86 637.496 1507.85 637.496C1507.85 637.496 1507.85 637.496 1507.85 637.496C1507.85 637.496 1507.84 637.496 1507.84 637.496C1507.84 637.496 1507.84 637.496 1507.84 637.496C1507.83 637.496 1507.83 637.496 1507.83 637.496C1507.83 637.496 1507.82 637.496 1507.82 637.496C1507.82 637.496 1507.82 637.496 1507.82 637.496C1507.81 637.496 1507.81 637.496 1507.81 637.496C1507.81 637.496 1507.81 637.496 1507.8 637.496C1507.8 637.496 1507.8 637.496 1507.8 637.496C1507.8 637.496 1507.79 637.496 1507.79 637.496C1507.79 637.496 1507.79 637.496 1507.79 637.496C1507.78 637.496 1507.78 637.496 1507.78 637.496C1507.78 637.496 1507.78 637.496 1507.77 637.496C1507.77 637.496 1507.77 637.496 1507.77 637.496C1507.77 637.496 1507.76 637.496 1507.76 637.496C1507.76 637.496 1507.76 637.496 1507.75 637.496C1507.75 637.496 1507.75 637.496 1507.75 637.496C1507.75 637.496 1507.74 637.496 1507.74 637.496C1507.74 637.496 1507.74 637.496 1507.74 637.496C1507.73 637.496 1507.73 637.496 1507.73 637.496C1507.73 637.496 1507.73 637.496 1507.72 637.496C1507.72 637.496 1507.72 637.496 1507.72 637.496C1507.72 637.496 1507.71 637.496 1507.71 637.496C1507.71 637.496 1507.71 637.496 1507.71 637.496C1507.7 637.496 1507.7 637.496 1507.7 637.496C1507.7 637.496 1507.69 637.496 1507.69 637.496C1507.69 637.496 1507.69 637.496 1507.69 637.496C1507.68 637.496 1507.68 637.496 1507.68 637.496C1507.68 637.496 1507.68 637.496 1507.67 637.496C1507.67 637.496 1507.67 637.496 1507.67 637.496C1507.67 637.496 1507.66 637.496 1507.66 637.496C1507.66 637.496 1507.66 637.496 1507.66 637.496C1507.65 637.496 1507.65 637.496 1507.65 637.496C1507.65 637.496 1507.64 637.496 1507.64 637.496C1507.64 637.496 1507.64 637.496 1507.64 637.496C1507.63 637.496 1507.63 637.496 1507.63 637.496C1507.63 637.496 1507.63 637.496 1507.62 637.496C1507.62 637.496 1507.62 637.496 1507.62 637.496C1507.62 637.496 1507.61 637.496 1507.61 637.496C1507.61 637.496 1507.61 637.496 1507.6 637.496C1507.6 637.496 1507.6 637.496 1507.6 637.496C1507.6 637.496 1507.59 637.496 1507.59 637.496C1507.59 637.496 1507.59 637.496 1507.59 637.496C1507.58 637.496 1507.58 637.496 1507.58 637.496C1507.58 637.496 1507.58 637.496 1507.57 637.496C1507.57 637.496 1507.57 637.496 1507.57 637.496C1507.57 637.496 1507.56 637.496 1507.56 637.496C1507.56 637.496 1507.56 637.496 1507.55 637.496C1507.55 637.496 1507.55 637.496 1507.55 637.496C1507.55 637.496 1507.54 637.496 1507.54 637.496C1507.54 637.496 1507.54 637.496 1507.54 637.496C1507.53 637.496 1507.53 637.496 1507.53 637.496C1507.53 637.496 1507.53 637.496 1507.52 637.496C1507.52 637.496 1507.52 637.496 1507.52 637.496C1507.51 637.496 1507.51 637.496 1507.51 637.496C1507.51 637.496 1507.51 637.496 1507.5 637.496C1507.5 637.496 1507.5 637.496 1507.5 637.496C1507.5 637.496 1507.49 637.496 1507.49 637.496C1507.49 637.496 1507.49 637.496 1507.49 637.496C1507.48 637.496 1507.48 637.496 1507.48 637.496C1507.48 637.496 1507.47 637.496 1507.47 637.496C1507.47 637.496 1507.47 637.496 1507.47 637.496C1507.46 637.496 1507.46 637.496 1507.46 637.496C1507.46 637.496 1507.46 637.496 1507.45 637.496C1507.45 637.496 1507.45 637.496 1507.45 637.496C1507.44 637.496 1507.44 637.496 1507.44 637.496C1507.44 637.496 1507.44 637.496 1507.43 637.496C1507.43 637.496 1507.43 637.496 1507.43 637.496C1507.43 637.496 1507.42 637.496 1507.42 637.496C1507.42 637.496 1507.42 637.496 1507.42 637.496C1507.41 637.496 1507.41 637.496 1507.41 637.496C1507.41 637.496 1507.4 637.496 1507.4 637.496C1507.4 637.496 1507.4 637.496 1507.4 637.496C1507.39 637.496 1507.39 637.496 1507.39 637.496C1507.39 637.496 1507.39 637.496 1507.38 637.496C1507.38 637.496 1507.38 637.496 1507.38 637.496C1507.37 637.496 1507.37 637.496 1507.37 637.496C1507.37 637.496 1507.37 637.496 1507.36 637.496C1507.36 637.496 1507.36 637.496 1507.36 637.496C1507.36 637.496 1507.35 637.496 1507.35 637.496C1507.35 637.496 1507.35 637.496 1507.34 637.496C1507.34 637.496 1507.34 637.496 1507.34 637.496C1507.34 637.496 1507.33 637.496 1507.33 637.496C1507.33 637.496 1507.33 637.496 1507.33 637.496C1507.32 637.496 1507.32 637.496 1507.32 637.496C1507.32 637.496 1507.31 637.496 1507.31 637.496C1507.31 637.496 1507.31 637.496 1507.31 637.496C1507.3 637.496 1507.3 637.496 1507.3 637.496C1507.3 637.496 1507.3 637.496 1507.29 637.496C1507.29 637.496 1507.29 637.496 1507.29 637.496C1507.28 637.496 1507.28 637.496 1507.28 637.496C1507.28 637.496 1507.28 637.496 1507.27 637.496C1507.27 637.496 1507.27 637.496 1507.27 637.496C1507.27 637.496 1507.26 637.496 1507.26 637.496C1507.26 637.496 1507.26 637.496 1507.25 637.496C1507.25 637.496 1507.25 637.496 1507.25 637.496C1507.25 637.496 1507.24 637.496 1507.24 637.496C1507.24 637.496 1507.24 637.496 1507.24 637.496C1507.23 637.496 1507.23 637.496 1507.23 637.496C1507.23 637.496 1507.22 637.496 1507.22 637.496C1507.22 637.496 1507.22 637.496 1507.22 637.496C1507.21 637.496 1507.21 637.496 1507.21 637.496C1507.21 637.496 1507.21 637.496 1507.2 637.496C1507.2 637.496 1507.2 637.496 1507.2 637.496C1507.19 637.496 1507.19 637.496 1507.19 637.496C1507.19 637.496 1507.19 637.496 1507.18 637.496C1507.18 637.496 1507.18 637.496 1507.18 637.496C1507.17 637.496 1507.17 637.496 1507.17 637.496C1507.17 637.496 1507.17 637.496 1507.16 637.496C1507.16 637.496 1507.16 637.496 1507.16 637.496C1507.16 637.496 1507.15 637.496 1507.15 637.496C1507.15 637.496 1507.15 637.496 1507.14 637.496C1507.14 637.496 1507.14 637.496 1507.14 637.496C1507.14 637.496 1507.13 637.496 1507.13 637.496C1507.13 637.496 1507.13 637.496 1507.13 637.496C1507.12 637.496 1507.12 637.496 1507.12 637.496C1507.12 637.496 1507.11 637.496 1507.11 637.496C1507.11 637.496 1507.11 637.496 1507.11 637.496C1507.1 637.496 1507.1 637.496 1507.1 637.496C1507.1 637.496 1507.09 637.496 1507.09 637.496C1507.09 637.496 1507.09 637.496 1507.09 637.496C1507.08 637.496 1507.08 637.496 1507.08 637.496C1507.08 637.496 1507.08 637.496 1507.07 637.496C1507.07 637.496 1507.07 637.496 1507.07 637.496C1507.06 637.496 1507.06 637.496 1507.06 637.496C1507.06 637.496 1507.06 637.496 1507.05 637.496C1507.05 637.496 1507.05 637.496 1507.05 637.496C1507.04 637.496 1507.04 637.496 1507.04 637.496C1507.04 637.496 1507.04 637.496 1507.03 637.496C1507.03 637.496 1507.03 637.496 1507.03 637.496C1507.02 637.496 1507.02 637.496 1507.02 637.496C1507.02 637.496 1507.02 637.496 1507.01 637.496C1507.01 637.496 1507.01 637.496 1507.01 637.496C1507.01 637.496 1507 637.496 1507 637.496C1507 637.496 1507 637.496 1506.99 637.496C1506.99 637.496 1506.99 637.496 1506.99 637.496C1506.99 637.496 1506.98 637.496 1506.98 637.496C1506.98 637.496 1506.98 637.496 1506.97 637.496C1506.97 637.496 1506.97 637.496 1506.97 637.496C1506.97 637.496 1506.96 637.496 1506.96 637.496C1506.96 637.496 1506.96 637.496 1506.95 637.496C1506.95 637.496 1506.95 637.496 1506.95 637.496C1506.95 637.496 1506.94 637.496 1506.94 637.496C1506.94 637.496 1506.94 637.496 1506.93 637.496C1506.93 637.496 1506.93 637.496 1506.93 637.496C1506.93 637.496 1506.92 637.496 1506.92 637.496C1506.92 637.496 1506.92 637.496 1506.91 637.496C1506.91 637.496 1506.91 637.496 1506.91 637.496C1506.91 637.496 1506.9 637.496 1506.9 637.496C1506.9 637.496 1506.9 637.496 1506.9 637.496C1506.89 637.496 1506.89 637.496 1506.89 637.496C1506.89 637.496 1506.88 637.496 1506.88 637.496C1506.88 637.496 1506.88 637.496 1506.88 637.496C1506.87 637.496 1506.87 637.496 1506.87 637.496C1506.87 637.496 1506.86 637.496 1506.86 637.496C1506.86 637.496 1506.86 637.496 1506.86 637.496C1506.85 637.496 1506.85 637.496 1506.85 637.496C1506.85 637.496 1506.84 637.496 1506.84 637.496C1506.84 637.496 1506.84 637.496 1506.84 637.496C1506.83 637.496 1506.83 637.496 1506.83 637.496C1506.83 637.496 1506.82 637.496 1506.82 637.496C1506.82 637.496 1506.82 637.496 1506.82 637.496C1506.81 637.496 1506.81 637.496 1506.81 637.496C1506.81 637.496 1506.8 637.496 1506.8 637.496C1506.8 637.496 1506.8 637.496 1506.8 637.496C1506.79 637.496 1506.79 637.496 1506.79 637.496C1506.79 637.496 1506.78 637.496 1506.78 637.496C1506.78 637.496 1506.78 637.496 1506.78 637.496C1506.77 637.496 1506.77 637.496 1506.77 637.496C1506.77 637.496 1506.76 637.496 1506.76 637.496C1506.76 637.496 1506.76 637.496 1506.76 637.496C1506.75 637.496 1506.75 637.496 1506.75 637.496C1506.75 637.496 1506.74 637.496 1506.74 637.496C1506.74 637.496 1506.74 637.496 1506.74 637.496C1506.73 637.496 1506.73 637.496 1506.73 637.496C1506.73 637.496 1506.72 637.496 1506.72 637.496C1506.72 637.496 1506.72 637.496 1506.71 637.496C1506.71 637.496 1506.71 637.496 1506.71 637.496C1506.71 637.496 1506.7 637.496 1506.7 637.496C1506.7 637.496 1506.7 637.496 1506.69 637.496C1506.69 637.496 1506.69 637.496 1506.69 637.496C1506.69 637.496 1506.68 637.496 1506.68 637.496C1506.68 637.496 1506.68 637.496 1506.67 637.496C1506.67 637.496 1506.67 637.496 1506.67 637.496C1506.67 637.496 1506.66 637.496 1506.66 637.496C1506.66 637.496 1506.66 637.496 1506.65 637.496C1506.65 637.496 1506.65 637.496 1506.65 637.496C1506.65 637.496 1506.64 637.496 1506.64 637.496C1506.64 637.496 1506.64 637.496 1506.63 637.496C1506.63 637.496 1506.63 637.496 1506.63 637.496C1506.63 637.496 1506.62 637.496 1506.62 637.496C1506.62 637.496 1506.62 637.496 1506.61 637.496C1506.61 637.496 1506.61 637.496 1506.61 637.496C1506.6 637.496 1506.6 637.496 1506.6 637.496C1506.6 637.496 1506.6 637.496 1506.59 637.496C1506.59 637.496 1506.59 637.496 1506.59 637.496C1506.58 637.496 1506.58 637.496 1506.58 637.496C1506.58 637.496 1506.58 637.496 1506.57 637.496C1506.57 637.496 1506.57 637.496 1506.57 637.496C1506.56 637.496 1506.56 637.496 1506.56 637.496C1506.56 637.496 1506.56 637.496 1506.55 637.496C1506.55 637.496 1506.55 637.496 1506.55 637.496C1506.54 637.496 1506.54 637.496 1506.54 637.496C1506.54 637.496 1506.53 637.496 1506.53 637.496C1506.53 637.496 1506.53 637.496 1506.53 637.496C1506.52 637.496 1506.52 637.496 1506.52 637.496C1506.52 637.496 1506.51 637.496 1506.51 637.496C1506.51 637.496 1506.51 637.496 1506.51 637.496C1506.5 637.496 1506.5 637.496 1506.5 637.496C1506.5 637.496 1506.49 637.496 1506.49 637.496C1506.49 637.496 1506.49 637.496 1506.48 637.496C1506.48 637.496 1506.48 637.496 1506.48 637.496C1506.48 637.496 1506.47 637.496 1506.47 637.496C1506.47 637.496 1506.47 637.496 1506.46 637.496C1506.46 637.496 1506.46 637.496 1506.46 637.496C1506.46 637.496 1506.45 637.496 1506.45 637.496C1506.45 637.496 1506.45 637.496 1506.44 637.496C1506.44 637.496 1506.44 637.496 1506.44 637.496C1506.43 637.496 1506.43 637.496 1506.43 637.496C1506.43 637.496 1506.43 637.496 1506.42 637.496C1506.42 637.496 1506.42 637.496 1506.42 637.496C1506.41 637.496 1506.41 637.496 1506.41 637.496C1506.41 637.496 1506.41 637.496 1506.4 637.496C1506.4 637.496 1506.4 637.496 1506.4 637.496C1506.39 637.496 1506.39 637.496 1506.39 637.496C1506.39 637.496 1506.38 637.496 1506.38 637.496C1506.38 637.496 1506.38 637.496 1506.38 637.496C1506.37 637.496 1506.37 637.496 1506.37 637.496C1506.37 637.496 1506.36 637.496 1506.36 637.496C1506.36 637.496 1506.36 637.496 1506.35 637.496C1506.35 637.496 1506.35 637.496 1506.35 637.496C1506.35 637.496 1506.34 637.496 1506.34 637.496C1506.34 637.496 1506.34 637.496 1506.33 637.496C1506.33 637.496 1506.33 637.496 1506.33 637.496C1506.32 637.496 1506.32 637.496 1506.32 637.496C1506.32 637.496 1506.32 637.496 1506.31 637.496C1506.31 637.496 1506.31 637.496 1506.31 637.496C1506.3 637.496 1506.3 637.496 1506.3 637.496C1506.3 637.496 1506.29 637.496 1506.29 637.496C1506.29 637.496 1506.29 637.496 1506.29 637.496C1506.28 637.496 1506.28 637.496 1506.28 637.496C1506.28 637.496 1506.27 637.496 1506.27 637.496C1506.27 637.496 1506.27 637.496 1506.27 637.496C1506.26 637.496 1506.26 637.496 1506.26 637.496C1506.26 637.496 1506.25 637.496 1506.25 637.496C1506.25 637.496 1506.25 637.496 1506.24 637.496C1506.24 637.496 1506.24 637.496 1506.24 637.496C1506.24 637.496 1506.23 637.496 1506.23 637.496C1506.23 637.496 1506.23 637.496 1506.22 637.496C1506.22 637.496 1506.22 637.496 1506.22 637.496C1506.21 637.496 1506.21 637.496 1506.21 637.496C1506.21 637.496 1506.2 637.496 1506.2 637.496C1506.2 637.496 1506.2 637.496 1506.2 637.496C1506.19 637.496 1506.19 637.496 1506.19 637.496C1506.19 637.496 1506.18 637.496 1506.18 637.496C1506.18 637.496 1506.18 637.496 1506.17 637.496C1506.17 637.496 1506.17 637.496 1506.17 637.496C1506.17 637.496 1506.16 637.496 1506.16 637.496C1506.16 637.496 1506.16 637.496 1506.15 637.496C1506.15 637.496 1506.15 637.496 1506.15 637.496C1506.14 637.496 1506.14 637.496 1506.14 637.496C1506.14 637.496 1506.14 637.496 1506.13 637.496C1506.13 637.496 1506.13 637.496 1506.13 637.496C1506.12 637.496 1506.12 637.496 1506.12 637.496C1506.12 637.496 1506.11 637.496 1506.11 637.496C1506.11 637.496 1506.11 637.496 1506.1 637.496C1506.1 637.496 1506.1 637.496 1506.1 637.496C1506.1 637.496 1506.09 637.496 1506.09 637.496C1506.09 637.496 1506.09 637.496 1506.08 637.496C1506.08 637.496 1506.08 637.496 1506.08 637.496C1506.07 637.496 1506.07 637.496 1506.07 637.496C1506.07 637.496 1506.07 637.496 1506.06 637.496C1506.06 637.496 1506.06 637.496 1506.06 637.496C1506.05 637.496 1506.05 637.496 1506.05 637.496C1506.05 637.496 1506.04 637.496 1506.04 637.496C1506.04 637.496 1506.04 637.496 1506.03 637.496C1506.03 637.496 1506.03 637.496 1506.03 637.496C1506.03 637.496 1506.02 637.496 1506.02 637.496C1506.02 637.496 1506.02 637.496 1506.01 637.496C1506.01 637.496 1506.01 637.496 1506.01 637.496C1506 637.496 1506 637.496 1506 637.496C1506 637.496 1506 637.496 1505.99 637.496C1505.99 637.496 1505.99 637.496 1505.99 637.496C1505.98 637.496 1505.98 637.496 1505.98 637.496C1505.98 637.496 1505.97 637.496 1505.97 637.496C1505.97 637.496 1505.97 637.496 1505.96 637.496C1505.96 637.496 1505.96 637.496 1505.96 637.496C1505.96 637.496 1505.95 637.496 1505.95 637.496C1505.95 637.496 1505.95 637.496 1505.94 637.496C1505.94 637.496 1505.94 637.496 1505.94 637.496C1505.93 637.496 1505.93 637.496 1505.93 637.496C1505.93 637.496 1505.92 637.496 1505.92 637.496C1505.92 637.496 1505.92 637.496 1505.91 637.496C1505.91 637.496 1505.91 637.496 1505.91 637.496C1505.91 637.496 1505.9 637.496 1505.9 637.496C1505.9 637.496 1505.9 637.496 1505.89 637.496C1505.89 637.496 1505.89 637.496 1505.89 637.496C1505.88 637.496 1505.88 637.496 1505.88 637.496C1505.88 637.496 1505.87 637.496 1505.87 637.496C1505.87 637.496 1505.87 637.496 1505.87 637.496C1505.86 637.496 1505.86 637.496 1505.86 637.496C1505.86 637.496 1505.85 637.496 1505.85 637.496C1505.85 637.496 1505.85 637.496 1505.84 637.496C1505.84 637.496 1505.84 637.496 1505.84 637.496C1505.83 637.496 1505.83 637.496 1505.83 637.496C1505.83 637.496 1505.83 637.496 1505.82 637.496C1505.82 637.496 1505.82 637.496 1505.82 637.496C1505.81 637.496 1505.81 637.496 1505.81 637.496C1505.81 637.496 1505.8 637.496 1505.8 637.496C1505.8 637.496 1505.8 637.496 1505.79 637.496C1505.79 637.496 1505.79 637.496 1505.79 637.496C1505.78 637.496 1505.78 637.496 1505.78 637.496C1505.78 637.496 1505.78 637.496 1505.77 637.496C1505.77 637.496 1505.77 637.496 1505.77 637.496C1505.76 637.496 1505.76 637.496 1505.76 637.496C1505.76 637.496 1505.75 637.496 1505.75 637.496C1505.75 637.496 1505.75 637.496 1505.74 637.496C1505.74 637.496 1505.74 637.496 1505.74 637.496C1505.73 637.496 1505.73 637.496 1505.73 637.496C1505.73 637.496 1505.73 637.496 1505.72 637.496C1505.72 637.496 1505.72 637.496 1505.72 637.496C1505.71 637.496 1505.71 637.496 1505.71 637.496C1505.71 637.496 1505.7 637.496 1505.7 637.496C1505.7 637.496 1505.7 637.496 1505.69 637.496C1505.69 637.496 1505.69 637.496 1505.69 637.496C1505.68 637.496 1505.68 637.496 1505.68 637.496C1505.68 637.496 1505.67 637.496 1505.67 637.496C1505.67 637.496 1505.67 637.496 1505.67 637.496C1505.66 637.496 1505.66 637.496 1505.66 637.496C1505.66 637.496 1505.65 637.496 1505.65 637.496C1505.65 637.496 1505.65 637.496 1505.64 637.496C1505.64 637.496 1505.64 637.496 1505.64 637.496C1505.63 637.496 1505.63 637.496 1505.63 637.496C1505.63 637.496 1505.62 637.496 1505.62 637.496C1505.62 637.496 1505.62 637.496 1505.61 637.496C1505.61 637.496 1505.61 637.496 1505.61 637.496C1505.61 637.496 1505.6 637.496 1505.6 637.496C1505.6 637.496 1505.6 637.496 1505.59 637.496C1505.59 637.496 1505.59 637.496 1505.59 637.496C1505.58 637.496 1505.58 637.496 1505.58 637.496C1505.58 637.496 1505.57 637.496 1505.57 637.496C1505.57 637.496 1505.57 637.496 1505.56 637.496C1505.56 637.496 1505.56 637.496 1505.56 637.496C1505.55 637.496 1505.55 637.496 1505.55 637.496C1505.55 637.496 1505.54 637.496 1505.54 637.496C1505.54 637.496 1505.54 637.496 1505.54 637.496C1505.53 637.496 1505.53 637.496 1505.53 637.496C1505.53 637.496 1505.52 637.496 1505.52 637.496C1505.52 637.496 1505.52 637.496 1505.51 637.496C1505.51 637.496 1505.51 637.496 1505.51 637.496C1505.5 637.496 1505.5 637.496 1505.5 637.496C1505.5 637.496 1505.49 637.496 1505.49 637.496C1505.49 637.496 1505.49 637.496 1505.48 637.496C1505.48 637.496 1505.48 637.496 1505.48 637.496C1505.47 637.496 1505.47 637.496 1505.47 637.496C1505.47 637.496 1505.47 637.496 1505.46 637.496C1505.46 637.496 1505.46 637.496 1505.46 637.496C1505.45 637.496 1505.45 637.496 1505.45 637.496C1505.45 637.496 1505.44 637.496 1505.44 637.496C1505.44 637.496 1505.44 637.496 1505.43 637.496C1505.43 637.496 1505.43 637.496 1505.43 637.496C1505.42 637.496 1505.42 637.496 1505.42 637.496C1505.42 637.496 1505.41 637.496 1505.41 637.496C1505.41 637.496 1505.41 637.496 1505.4 637.496C1505.4 637.496 1505.4 637.496 1505.4 637.496C1505.39 637.496 1505.39 637.496 1505.39 637.496C1505.39 637.496 1505.38 637.496 1505.38 637.496C1505.38 637.496 1505.38 637.496 1505.38 637.496C1505.37 637.496 1505.37 637.496 1505.37 637.496C1505.37 637.496 1505.36 637.496 1505.36 637.496C1505.36 637.496 1505.36 637.496 1505.35 637.496C1505.35 637.496 1505.35 637.496 1505.35 637.496C1505.34 637.496 1505.34 637.496 1505.34 637.496C1505.34 637.496 1505.33 637.496 1505.33 637.496C1505.33 637.496 1505.33 637.496 1505.32 637.496C1505.32 637.496 1505.32 637.496 1505.32 637.496C1505.31 637.496 1505.31 637.496 1505.31 637.496C1505.31 637.496 1505.3 637.496 1505.3 637.496C1505.3 637.496 1505.3 637.496 1505.29 637.496C1505.29 637.496 1505.29 637.496 1505.29 637.496C1505.28 637.496 1505.28 637.496 1505.28 637.496C1505.28 637.496 1505.27 637.496 1505.27 637.496C1505.27 637.496 1505.27 637.496 1505.26 637.496C1505.26 637.496 1505.26 637.496 1505.26 637.496C1505.26 637.496 1505.25 637.496 1505.25 637.496C1505.25 637.496 1505.25 637.496 1505.24 637.496C1505.24 637.496 1505.24 637.496 1505.24 637.496C1505.23 637.496 1505.23 637.496 1505.23 637.496C1505.23 637.496 1505.22 637.496 1505.22 637.496C1505.22 637.496 1505.22 637.496 1505.21 637.496C1505.21 637.496 1505.21 637.496 1505.21 637.496C1505.2 637.496 1505.2 637.496 1505.2 637.496C1505.2 637.496 1505.19 637.496 1505.19 637.496C1505.19 637.496 1505.19 637.496 1505.18 637.496C1505.18 637.496 1505.18 637.496 1505.18 637.496C1505.17 637.496 1505.17 637.496 1505.17 637.496C1505.17 637.496 1505.16 637.496 1505.16 637.496C1505.16 637.496 1505.16 637.496 1505.15 637.496C1505.15 637.496 1505.15 637.496 1505.15 637.496C1505.14 637.496 1505.14 637.496 1505.14 637.496C1505.14 637.496 1505.13 637.496 1505.13 637.496C1505.13 637.496 1505.13 637.496 1505.12 637.496C1505.12 637.496 1505.12 637.496 1505.12 637.496C1505.11 637.496 1505.11 637.496 1505.11 637.496C1505.11 637.496 1505.1 637.496 1505.1 637.496C1505.1 637.496 1505.1 637.496 1505.09 637.496C1505.09 637.496 1505.09 637.496 1505.09 637.496C1505.08 637.496 1505.08 637.496 1505.08 637.496C1505.08 637.496 1505.07 637.496 1505.07 637.496C1505.07 637.496 1505.07 637.496 1505.06 637.496C1505.06 637.496 1505.06 637.496 1505.06 637.496C1505.05 637.496 1505.05 637.496 1505.05 637.496V639.496ZM1508.45 639.496H1535.26V637.496H1508.45V639.496ZM1534.26 638.496V652.772H1536.26V638.496H1534.26ZM1535.26 651.772H1476V653.772H1535.26V651.772Z" fill="black" mask="url(#path-4-outside-1_1_2)"/>
</g>
</g>
<defs>
<filter id="filter0_d_1_2" x="1445.17" y="199" width="120.341" height="487.772" filterUnits="userSpaceOnUse" color-interpolation-filters="sRGB">
<feFlood flood-opacity="0" result="BackgroundImageFix"/>
<feColorMatrix in="SourceAlpha" type="matrix" values="0 0 0 0 0 0 0 0 0 0 0 0 0 0 0 0 0 0 127 0" result="hardAlpha"/>
<feOffset dy="4"/>
<feGaussianBlur stdDeviation="15"/>
<feComposite in2="hardAlpha" operator="out"/>
<feColorMatrix type="matrix" values="0 0 0 0 0 0 0 0 0 0 0 0 0 0 0 0 0 0 0.25 0"/>
<feBlend mode="normal" in2="BackgroundImageFix" result="effect1_dropShadow_1_2"/>
<feBlend mode="normal" in="SourceGraphic" in2="effect1_dropShadow_1_2" result="shape"/>
</filter>
<linearGradient id="paint0_linear_1_2" x1="800" y1="0" x2="800" y2="886" gradientUnits="userSpaceOnUse">
<stop stop-color="#F2F3F5"/>
<stop offset="1" stop-color="#EEF0EF"/>
</linearGradient>
<linearGradient id="paint1_linear_1_2" x1="800" y1="43" x2="800" y2="843" gradientUnits="userSpaceOnUse">
<stop stop-color="#F3F4F6"/>
<stop offset="1" stop-color="#EEF0F0"/>
</linearGradient>
<linearGradient id="paint2_linear_1_2" x1="1176" y1="43" x2="1176" y2="843" gradientUnits="userSpaceOnUse">
<stop stop-color="#F3F4F6"/>
<stop offset="1" stop-color="#EFEFF1"/>
</linearGradient>
<linearGradient id="paint3_linear_1_2" x1="1646.34" y1="228.793" x2="1664.96" y2="979.531" gradientUnits="userSpaceOnUse">
<stop stop-color="#E2495D"/>
<stop offset="1" stop-color="#B81528"/>
</linearGradient>
<clipPath id="clip0_1_2">
<rect width="1600" height="886" fill="white"/>
</clipPath>
</defs>
</svg>
